<?xml version="1.0" encoding="UTF-8" standalone="no"?><!DOCTYPE svg PUBLIC "-//W3C//DTD SVG 1.1//EN" "http://www.w3.org/Graphics/SVG/1.1/DTD/svg11.dtd"><svg width="100%" height="100%" viewBox="0 0 1067 1067" version="1.1" xmlns="http://www.w3.org/2000/svg" xmlns:xlink="http://www.w3.org/1999/xlink" xml:space="preserve" xmlns:serif="http://www.serif.com/" style="fill-rule:evenodd;clip-rule:evenodd;stroke-linejoin:round;stroke-miterlimit:2;"><g><path d="M533.332,96.098c142.407,0 159.274,0.542 215.512,3.108c51.999,2.373 80.239,11.062 99.034,18.363c24.893,9.675 42.661,21.235 61.323,39.897c18.662,18.662 30.221,36.43 39.894,61.323c7.304,18.795 15.993,47.035 18.366,99.032c2.566,56.24 3.108,73.107 3.108,215.513c-0,142.407 -0.542,159.274 -3.108,215.512c-2.373,51.999 -11.062,80.239 -18.366,99.034c-9.673,24.893 -21.232,42.661 -39.894,61.323c-18.662,18.662 -36.43,30.221 -61.323,39.894c-18.795,7.304 -47.035,15.993 -99.034,18.366c-56.23,2.566 -73.096,3.108 -215.512,3.108c-142.415,-0 -159.282,-0.542 -215.511,-3.108c-52,-2.373 -80.239,-11.062 -99.032,-18.366c-24.895,-9.673 -42.664,-21.232 -61.326,-39.894c-18.662,-18.662 -30.221,-36.43 -39.894,-61.323c-7.304,-18.795 -15.992,-47.035 -18.365,-99.032c-2.566,-56.24 -3.108,-73.107 -3.108,-215.514c-0,-142.406 0.542,-159.273 3.108,-215.511c2.373,-51.999 11.061,-80.239 18.365,-99.034c9.673,-24.893 21.232,-42.661 39.894,-61.323c18.662,-18.662 36.431,-30.222 61.326,-39.897c18.793,-7.301 47.032,-15.99 99.03,-18.363c56.24,-2.566 73.106,-3.108 215.513,-3.108m0,-96.098c-144.845,0 -163.006,0.614 -219.891,3.209c-56.77,2.592 -95.537,11.606 -129.463,24.791c-35.072,13.63 -64.814,31.867 -94.464,61.516c-29.65,29.65 -47.886,59.392 -61.516,94.464c-13.185,33.926 -22.199,72.694 -24.791,129.463c-2.595,56.883 -3.207,75.046 -3.207,219.891c-0,144.846 0.612,163.008 3.207,219.892c2.592,56.769 11.606,95.537 24.791,129.463c13.63,35.069 31.866,64.814 61.516,94.464c29.65,29.649 59.392,47.886 94.464,61.515c33.926,13.186 72.693,22.2 129.463,24.791c56.885,2.596 75.046,3.208 219.891,3.208c144.846,-0 163.008,-0.612 219.892,-3.208c56.769,-2.591 95.537,-11.605 129.463,-24.791c35.071,-13.629 64.814,-31.866 94.464,-61.515c29.649,-29.65 47.886,-59.393 61.515,-94.464c13.185,-33.926 22.2,-72.694 24.791,-129.463c2.596,-56.884 3.21,-75.046 3.21,-219.892c-0,-144.845 -0.614,-163.008 -3.21,-219.891c-2.591,-56.769 -11.606,-95.537 -24.791,-129.463c-13.629,-35.072 -31.866,-64.814 -61.515,-94.464c-29.65,-29.649 -59.393,-47.886 -94.464,-61.516c-33.926,-13.185 -72.694,-22.199 -129.463,-24.791c-56.884,-2.595 -75.046,-3.209 -219.892,-3.209Zm0,259.46c-151.256,-0 -273.874,122.618 -273.874,273.874c-0,151.257 122.618,273.875 273.874,273.875c151.256,0 273.875,-122.618 273.875,-273.875c0,-151.256 -122.619,-273.874 -273.875,-273.874Zm0,451.653c-98.183,0 -177.779,-79.595 -177.779,-177.779c0,-98.183 79.596,-177.778 177.779,-177.778c98.184,-0 177.779,79.595 177.779,177.778c0,98.184 -79.595,177.779 -177.779,177.779Zm348.694,-462.474c0,35.347 -28.652,64.001 -63.999,64.001c-35.346,0 -64.001,-28.654 -64.001,-64.001c0,-35.346 28.655,-63.999 64.001,-63.999c35.347,0 63.999,28.653 63.999,63.999Z" style="fill:#4427f0;fill-rule:nonzero;"/></g></svg>