<?xml version="1.0" encoding="UTF-8" standalone="no"?><!DOCTYPE svg PUBLIC "-//W3C//DTD SVG 1.1//EN" "http://www.w3.org/Graphics/SVG/1.1/DTD/svg11.dtd"><svg width="100%" height="100%" viewBox="0 0 2134 2134" version="1.1" xmlns="http://www.w3.org/2000/svg" xmlns:xlink="http://www.w3.org/1999/xlink" xml:space="preserve" xmlns:serif="http://www.serif.com/" style="fill-rule:evenodd;clip-rule:evenodd;stroke-linejoin:round;stroke-miterlimit:2;"><path d="M2133.33,0l-2133.33,0l0,2133.33l2133.33,0l0,-2133.33Zm-1376.63,1612.5l-259.782,0l0,-781.559l259.782,0l0,781.559Zm-129.883,-888.281l-1.693,0c-87.174,0 -143.554,-60.01 -143.554,-135.01c0,-76.693 58.105,-135.042 146.972,-135.042c88.867,0 143.555,58.349 145.248,135.042c0,75 -56.381,135.01 -146.973,135.01Zm1066.6,888.281l-259.749,0l0,-418.115c0,-105.078 -37.614,-176.742 -131.608,-176.742c-71.761,0 -114.502,48.34 -133.284,95.003c-6.869,16.7 -8.545,40.04 -8.545,63.396l0,436.458l-259.766,0c0,0 3.402,-708.236 0,-781.559l259.766,0l0,110.661c34.521,-53.256 96.289,-129.004 234.114,-129.004c170.915,0 299.072,111.702 299.072,351.757l0,448.145Z" style="fill:#4427f0;fill-rule:nonzero;"/></svg>