<?xml version="1.0" encoding="UTF-8" standalone="no"?><!DOCTYPE svg PUBLIC "-//W3C//DTD SVG 1.1//EN" "http://www.w3.org/Graphics/SVG/1.1/DTD/svg11.dtd"><svg width="100%" height="100%" viewBox="0 0 8509 8509" version="1.1" xmlns="http://www.w3.org/2000/svg" xmlns:xlink="http://www.w3.org/1999/xlink" xml:space="preserve" xmlns:serif="http://www.serif.com/" style="fill-rule:evenodd;clip-rule:evenodd;stroke-linejoin:round;stroke-miterlimit:2;"><path d="M8508.33,0l0,8506.88l-8508.33,-0l0,-8506.88l8508.33,0Zm-5850.62,6574.46l-1015.45,0c-240.37,0 -435.191,-194.821 -435.191,-435.191l0,-3583.37c0,-344.379 279.104,-623.484 623.487,-623.484c134.909,0 266.046,43.663 373.971,124.609l453.183,339.596l1595.7,1196.78l1595.7,-1196.78l453.179,-339.596c107.929,-80.946 239.066,-124.609 373.975,-124.609c344.383,0 623.483,279.105 623.483,623.484l0,3583.37c0,240.371 -194.821,435.191 -435.192,435.191l-1015.45,0l-0.001,-2364.54l-1595.7,1196.78l-1595.7,-1196.78l0,2364.54l0.006,0Z" style="fill:#4427f0;"/></svg>