<?xml version="1.0" encoding="UTF-8" standalone="no"?><!DOCTYPE svg PUBLIC "-//W3C//DTD SVG 1.1//EN" "http://www.w3.org/Graphics/SVG/1.1/DTD/svg11.dtd"><svg width="100%" height="100%" viewBox="0 0 2134 2134" version="1.1" xmlns="http://www.w3.org/2000/svg" xmlns:xlink="http://www.w3.org/1999/xlink" xml:space="preserve" xmlns:serif="http://www.serif.com/" style="fill-rule:evenodd;clip-rule:evenodd;stroke-linejoin:round;stroke-miterlimit:2;"><path d="M933.333,1177.82c0,-61.231 -49.918,-111.149 -111.149,-111.149c-61.214,0 -111.149,49.918 -111.149,111.149c0,61.214 49.935,111.149 111.149,111.149c61.231,0 111.149,-49.919 111.149,-111.149Z" style="fill:#4427f0;fill-rule:nonzero;"/><path d="M1290.02,1430.62c-47.787,47.787 -150.179,64.844 -223.145,64.844c-73.177,-0 -175.358,-17.057 -223.144,-64.844c-11.312,-11.312 -29.444,-11.312 -40.739,-0c-11.312,11.312 -11.312,29.444 0,40.739c75.732,75.733 221.224,81.706 263.883,81.706c42.66,-0 187.94,-5.973 263.9,-81.706c11.084,-11.312 11.084,-29.443 0,-40.739c-11.312,-11.312 -29.443,-11.312 -40.755,-0Z" style="fill:#4427f0;fill-rule:nonzero;"/><path d="M1311.15,1066.67c-61.23,0 -111.149,49.918 -111.149,111.149c0,61.214 49.919,111.149 111.149,111.149c61.214,0 111.149,-49.935 111.149,-111.149c0,-61.231 -49.918,-111.149 -111.149,-111.149Z" style="fill:#4427f0;fill-rule:nonzero;"/><path d="M2133.33,0l-2133.33,0l0,2133.33l2133.33,0l0,-2133.33Zm-447.786,1208.95c2.344,15.364 3.629,30.941 3.629,46.728c0,239.356 -278.613,433.285 -622.298,433.285c-343.685,0 -622.298,-193.929 -622.298,-433.285c0,-15.999 1.286,-31.787 3.63,-47.151c-54.183,-24.317 -91.944,-78.711 -91.944,-141.862c0,-85.759 69.548,-155.518 155.518,-155.518c41.813,0 79.573,16.423 107.519,43.311c107.943,-77.865 257.292,-127.588 423.47,-131.853c0,-2.132 77.653,-372.054 77.653,-372.054c1.498,-7.242 5.762,-13.444 11.947,-17.48c6.185,-4.053 13.656,-5.339 20.915,-3.841l258.561,55.029c18.131,-36.686 55.452,-62.077 99.186,-62.077c61.442,0 111.149,49.707 111.149,111.149c0,61.442 -49.707,111.149 -111.149,111.149c-59.521,0 -107.731,-46.94 -110.498,-105.81l-231.478,-49.284l-70.817,333.447c163.2,5.746 309.766,55.241 416,132.048c27.945,-27.084 65.918,-43.734 107.942,-43.734c85.987,0 155.518,69.548 155.518,155.518c0,63.574 -38.184,117.968 -92.155,142.285Z" style="fill:#4427f0;fill-rule:nonzero;"/></svg>