<?xml version="1.0" encoding="UTF-8" standalone="no"?><!DOCTYPE svg PUBLIC "-//W3C//DTD SVG 1.1//EN" "http://www.w3.org/Graphics/SVG/1.1/DTD/svg11.dtd"><svg width="100%" height="100%" viewBox="0 0 2134 2134" version="1.1" xmlns="http://www.w3.org/2000/svg" xmlns:xlink="http://www.w3.org/1999/xlink" xml:space="preserve" xmlns:serif="http://www.serif.com/" style="fill-rule:evenodd;clip-rule:evenodd;stroke-linejoin:round;stroke-miterlimit:2;"><path d="M2133.33,0l-2133.33,0l0,2133.33l2133.33,0l0,-2133.33Zm-579.638,831.673c0.472,10.498 0.7,21.045 0.7,31.641c0,323.519 -246.257,696.582 -696.599,696.598l0.017,-0l-0.017,-0c-138.265,-0 -266.927,-40.527 -375.276,-109.977c19.156,2.262 38.655,3.385 58.398,3.385c114.714,-0 220.28,-39.127 304.085,-104.801c-107.177,-1.986 -197.542,-72.77 -228.727,-170.052c14.925,2.864 30.273,4.427 46.012,4.427c22.347,-0 43.995,-3.011 64.567,-8.626c-112.028,-22.429 -196.419,-121.436 -196.419,-239.991c0,-1.106 0,-2.099 0.033,-3.125c32.991,18.343 70.719,29.379 110.888,30.616c-65.739,-43.864 -108.951,-118.848 -108.951,-203.793c0,-44.857 12.125,-86.881 33.154,-123.063c120.736,148.145 301.172,245.573 504.655,255.811c-4.199,-17.937 -6.364,-36.621 -6.364,-55.827c-0,-135.156 109.652,-244.808 244.857,-244.808c70.426,-0 134.033,29.769 178.711,77.36c55.778,-11.003 108.154,-31.38 155.468,-59.424c-18.31,57.145 -57.112,105.094 -107.666,135.417c49.528,-5.925 96.729,-19.059 140.593,-38.558c-32.764,49.105 -74.317,92.236 -122.119,126.79Z" style="fill:#4427f0;fill-rule:nonzero;"/></svg>