<?xml version="1.0" encoding="UTF-8" standalone="no"?>
<!DOCTYPE svg PUBLIC "-//W3C//DTD SVG 1.1//EN" "http://www.w3.org/Graphics/SVG/1.1/DTD/svg11.dtd">
<svg width="100%" height="100%" viewBox="0 0 532 532" version="1.1" xmlns="http://www.w3.org/2000/svg" xmlns:xlink="http://www.w3.org/1999/xlink" xml:space="preserve" xmlns:serif="http://www.serif.com/" style="fill-rule:evenodd;clip-rule:evenodd;stroke-linejoin:round;stroke-miterlimit:2;">
    <g transform="matrix(1,0,0,1,-84,-14)">
        <path d="M350,14C203.28,14 84,133.28 84,280C84,426.72 203.28,546 350,546C496.72,546 616,426.72 616,280C616,133.28 496.72,14 350,14ZM118.16,296.8L209.441,296.8C210.562,329.28 214.48,360.081 220.64,388.081L143.921,388.077C129.359,360.639 120.398,329.28 118.159,296.8L118.16,296.8ZM366.8,138.88L366.8,50.4C394.241,59.92 418.32,92.4 435.12,138.88L366.8,138.88ZM445.198,171.923C451.917,199.923 456.397,230.724 457.518,263.204L366.799,263.2L366.799,171.923L445.198,171.923ZM333.198,50.403L333.198,138.883L264.878,138.883C281.679,92.965 305.761,59.926 333.198,50.403ZM333.198,171.923L333.198,263.2L242.479,263.2C243.6,230.72 248.081,199.36 254.799,171.919L333.198,171.923ZM208.878,263.2L118.159,263.2C120.397,230.161 129.358,199.36 143.921,171.919L220.64,171.919C213.921,199.923 209.999,230.72 208.878,263.2ZM242.48,296.802L333.199,296.802L333.199,388.083L254.801,388.079C248.078,360.079 243.602,329.282 242.481,296.802L242.48,296.802ZM333.199,421.122L333.199,509.602C305.758,500.083 281.679,467.602 264.879,421.122L333.199,421.122ZM366.801,509.602L366.801,421.122L435.121,421.122C418.32,467.04 394.238,500.079 366.801,509.602ZM366.801,388.082L366.801,296.805L458.082,296.805C456.961,329.285 452.48,360.645 445.762,388.086L366.801,388.082ZM491.121,296.805L582.402,296.805C580.164,329.844 571.203,360.645 556.64,388.086L479.359,388.082C486.078,360.082 490,329.285 491.121,296.805L491.121,296.805ZM491.121,263.203C490,230.723 486.082,199.922 479.922,171.922L556.641,171.922C571.2,199.363 580.161,230.723 582.403,263.203L491.121,263.203ZM534.24,138.883L470.398,138.883C460.32,108.645 447.437,82.883 432.32,62.723C473.199,77.844 508.48,104.723 534.24,138.883ZM267.678,62.723C252.557,82.883 239.678,108.645 229.6,138.883L165.76,138.883C191.518,104.723 226.799,77.844 267.68,62.723L267.678,62.723ZM165.754,421.123L230.156,421.123C240.234,451.361 253.117,477.123 268.234,497.283C226.796,482.162 191.515,455.283 165.754,421.123ZM432.318,497.283C447.439,477.123 460.318,451.361 470.396,421.123L534.794,421.123C508.478,455.283 473.196,482.162 432.314,497.283L432.318,497.283Z" style="fill:rgb(68,39,240);fill-rule:nonzero;"/>
    </g>
</svg>
