<svg xmlns="http://www.w3.org/2000/svg" viewBox="0 0 254.76 91.9"><defs><style>.cls-1{fill:#4427f0;}</style></defs><g id="Layer_2" data-name="Layer 2"><g id="Layer_1-2" data-name="Layer 1"><polygon class="cls-1" points="20.69 8.27 12.6 0.23 0 46.66 8.09 54.7 20.69 8.27"/><path class="cls-1" d="M63.72,36.52a8.59,8.59,0,0,1,8.68-9,10.63,10.63,0,0,1,4.1.77L71.81,45.79l8.79,8.79,4.75-2.76,3.11-11.43L81.84,44.2l3-11.37-6-12.9a18.09,18.09,0,0,0-6.5-1.17c-10.09,0-18.23,7.74-18.23,17.59,0,.65,0,1.3.1,1.95L43.38,44.5l8.15-30.31L45.78,0,40.45,19.87a19.05,19.05,0,0,0-6.39-1.11C24,18.76,15.83,26.5,15.83,36.35c0,8.56,5.16,16.35,15.06,18.35l2.52-8.91c-4.92-1.06-8-4.58-8-9.27a8.59,8.59,0,0,1,8.68-9,10.63,10.63,0,0,1,4.1.77L33.47,45.79l8.8,8.79,14.56-8.31a18.19,18.19,0,0,0,12.4,8.43l2.52-8.91C66.83,44.73,63.72,41.21,63.72,36.52Z"/><polygon class="cls-1" points="90.8 31.6 88.46 40.27 103.82 40.27 106.16 31.6 90.8 31.6"/><path class="cls-1" d="M159.8,14.54a5,5,0,1,0,5-5A5,5,0,0,0,159.8,14.54Z"/><polygon class="cls-1" points="179.2 54.58 182.84 41.04 195.38 33.77 199.19 18.76 185.48 31.36 186.82 26.26 179.26 18.76 174.18 37.65 162.2 44.5 165.66 31.72 159.51 18.7 152.24 45.73 161.09 54.58 172.56 47.99 179.2 54.58"/><polygon class="cls-1" points="224.4 40.8 218.25 44.32 220.47 36 212.91 28.49 208.22 46.08 216.96 54.76 221.29 52.23 224.4 40.8"/><path class="cls-1" d="M195.62,44.85a9.86,9.86,0,0,0,9.9,9.73H206l2.23-8.44a8,8,0,0,1-1,.06,1.91,1.91,0,0,1-2.05-2.06,4,4,0,0,1,.12-.88l4.57-17-7.5-7.5L196,42.21A9.36,9.36,0,0,0,195.62,44.85Z"/><polygon class="cls-1" points="3.51 62.62 0.64 62.62 0.64 91.35 14.56 91.35 14.56 88.58 3.51 88.58 3.51 62.62"/><path class="cls-1" d="M28.72,69.56a10.55,10.55,0,0,0-8.16,3.57,11.39,11.39,0,0,0,.17,15.44,10.43,10.43,0,0,0,8,3.33,10.42,10.42,0,0,0,8-3.33,11.41,11.41,0,0,0,.16-15.46A10.51,10.51,0,0,0,28.72,69.56Zm7.19,15.58a8,8,0,0,1-3,3.08,8.61,8.61,0,0,1-8.35,0,7.92,7.92,0,0,1-3-3.08,8.6,8.6,0,0,1-1.12-4.3,8.43,8.43,0,0,1,2.45-6.09,8.06,8.06,0,0,1,11.71,0A8.4,8.4,0,0,1,37,80.84,8.69,8.69,0,0,1,35.91,85.14Z"/><path class="cls-1" d="M54.91,69.56a10.51,10.51,0,0,0-8.15,3.57,11.38,11.38,0,0,0,.16,15.44,10.43,10.43,0,0,0,8,3.33,10.42,10.42,0,0,0,8-3.33,11.41,11.41,0,0,0,.16-15.46A10.51,10.51,0,0,0,54.91,69.56ZM62.1,85.14a8,8,0,0,1-3,3.08,8.61,8.61,0,0,1-8.35,0,8,8,0,0,1-3-3.08,8.7,8.7,0,0,1-1.12-4.3A8.43,8.43,0,0,1,49,74.75a8.07,8.07,0,0,1,11.72,0,8.4,8.4,0,0,1,2.46,6.09A8.7,8.7,0,0,1,62.1,85.14Z"/><path class="cls-1" d="M99.48,70.67a6.89,6.89,0,0,0-3.88-1.11,8.12,8.12,0,0,0-4.41,1.29,10.22,10.22,0,0,0-3.41,3.8,8.75,8.75,0,0,0-1.52-2.88A6.35,6.35,0,0,0,84,70.16a7.32,7.32,0,0,0-2.93-.6,8.24,8.24,0,0,0-4.36,1.25,10.45,10.45,0,0,0-2.94,3V70.1H71V91.35h2.73v-9a16.76,16.76,0,0,1,.79-5.92A6.83,6.83,0,0,1,77,73.35a6.14,6.14,0,0,1,3.55-1.14,4.85,4.85,0,0,1,2.83.83A4.38,4.38,0,0,1,85,75.25a18.61,18.61,0,0,1,.48,5.22V91.35h2.73V83A19.92,19.92,0,0,1,89,76.51a6.78,6.78,0,0,1,2.41-3.13,6.09,6.09,0,0,1,3.63-1.17,5,5,0,0,1,2.81.78,4.25,4.25,0,0,1,1.67,2.06,15.41,15.41,0,0,1,.48,4.7v11.6h2.8V79.75a16.7,16.7,0,0,0-.82-6A6.65,6.65,0,0,0,99.48,70.67Z"/><path class="cls-1" d="M127.12,73.68a10.48,10.48,0,0,0-8.68-4.12h-.13L166.13,1.17H154.64L115.6,57l7.91-30.6-7.85-7.62-10.91,41L115.06,70a10.1,10.1,0,0,0-5,3.54,11.39,11.39,0,0,0-2.48,7.21,11.51,11.51,0,0,0,2.93,7.7,10.18,10.18,0,0,0,8.14,3.41,11.78,11.78,0,0,0,4.2-.71,10.47,10.47,0,0,0,3.34-2.08,12.54,12.54,0,0,0,2.62-3.6l-2.3-1.21a13,13,0,0,1-2.33,3,8.29,8.29,0,0,1-2.61,1.49,9,9,0,0,1-3.16.57A7.55,7.55,0,0,1,112.71,87a8.71,8.71,0,0,1-2.37-6.07h19.13A11.51,11.51,0,0,0,127.12,73.68Zm-16.5,4.9a9.18,9.18,0,0,1,2.48-4.4,7.79,7.79,0,0,1,5.38-2,8.57,8.57,0,0,1,3.62.8,7.61,7.61,0,0,1,2.76,2.11,9.17,9.17,0,0,1,1.6,3.5Z"/><polygon class="cls-1" points="151.15 70.1 147.13 70.1 137.28 78.68 137.28 61.9 134.54 61.9 134.54 91.35 137.28 91.35 137.28 81.78 147.98 91.35 151.83 91.35 139.47 80.24 151.15 70.1"/><rect class="cls-1" x="154.23" y="61.9" width="2.73" height="29.45"/><path class="cls-1" d="M181.13,74a10.68,10.68,0,0,0-3.73-3.34,10,10,0,0,0-4.73-1.11,10.5,10.5,0,0,0-7.76,3.26,10.79,10.79,0,0,0-3.22,7.85,11,11,0,0,0,3.2,8,10.76,10.76,0,0,0,12.38,2.21,11.81,11.81,0,0,0,3.86-3.14v3.65h2.69V70.1h-2.69Zm-.91,11.18a8,8,0,0,1-3.09,3.06,8.6,8.6,0,0,1-4.26,1.13,8.07,8.07,0,0,1-4.16-1.14,8.31,8.31,0,0,1-3.09-3.19,8.63,8.63,0,0,1,0-8.59,8.23,8.23,0,0,1,3.07-3.15,8.32,8.32,0,0,1,4.21-1.12,8.05,8.05,0,0,1,6,2.48,8.45,8.45,0,0,1,2.43,6.16A8.78,8.78,0,0,1,180.22,85.19Z"/><path class="cls-1" d="M195.45,79.26A11.17,11.17,0,0,1,192.16,77a3.07,3.07,0,0,1-.78-2,2.73,2.73,0,0,1,1-2.05,3.26,3.26,0,0,1,2.28-.88,6.31,6.31,0,0,1,4.29,2.13l1.76-1.81c-2-1.92-4-2.87-5.91-2.87a5.76,5.76,0,0,0-4.18,1.6,5.36,5.36,0,0,0-1.65,4,5.45,5.45,0,0,0,1,3.3,11,11,0,0,0,3.91,2.93,12,12,0,0,1,3.44,2.27,3.16,3.16,0,0,1,.77,2.09,3.27,3.27,0,0,1-1.16,2.48,4,4,0,0,1-2.8,1,6,6,0,0,1-4.44-2.36l-1.72,2a7.63,7.63,0,0,0,2.77,2.21,8.05,8.05,0,0,0,3.51.8,6.3,6.3,0,0,0,4.6-1.82,6,6,0,0,0,1.84-4.43,5.53,5.53,0,0,0-1.08-3.34A12.25,12.25,0,0,0,195.45,79.26Z"/><polygon class="cls-1" points="210.62 62.21 207.88 62.21 207.88 70.1 204.15 70.1 204.15 72.47 207.88 72.47 207.88 91.35 210.62 91.35 210.62 72.47 214.95 72.47 214.95 70.1 210.62 70.1 210.62 62.21"/><path class="cls-1" d="M237.61,73.68a10.49,10.49,0,0,0-8.68-4.12,10.16,10.16,0,0,0-8.43,4A11.39,11.39,0,0,0,218,80.79a11.51,11.51,0,0,0,2.93,7.7,10.18,10.18,0,0,0,8.13,3.41,11.8,11.8,0,0,0,4.21-.71,10.47,10.47,0,0,0,3.34-2.08,12.73,12.73,0,0,0,2.62-3.6L237,84.3a13,13,0,0,1-2.33,3A8.29,8.29,0,0,1,232,88.81a9,9,0,0,1-3.16.57A7.54,7.54,0,0,1,223.2,87a8.62,8.62,0,0,1-2.37-6.07H240A11.44,11.44,0,0,0,237.61,73.68Zm-16.5,4.9a9.1,9.1,0,0,1,2.48-4.4,7.79,7.79,0,0,1,5.38-2,8.49,8.49,0,0,1,3.61.8,7.64,7.64,0,0,1,2.77,2.11,9.17,9.17,0,0,1,1.6,3.5Z"/><path class="cls-1" d="M252.34,69.56a5.2,5.2,0,0,0-2.89.9,9.7,9.7,0,0,0-2.64,2.75V70.1H244V91.35h2.79V84.16a33.28,33.28,0,0,1,.51-7.34,7.09,7.09,0,0,1,1.93-3.49,4,4,0,0,1,2.64-1.12,3.91,3.91,0,0,1,1.44.37l1.43-2.3A5,5,0,0,0,252.34,69.56Z"/></g></g></svg>