<?xml version="1.0" encoding="UTF-8" standalone="no"?><!DOCTYPE svg PUBLIC "-//W3C//DTD SVG 1.1//EN" "http://www.w3.org/Graphics/SVG/1.1/DTD/svg11.dtd"><svg width="100%" height="100%" viewBox="0 0 5180 1869" version="1.1" xmlns="http://www.w3.org/2000/svg" xmlns:xlink="http://www.w3.org/1999/xlink" xml:space="preserve" xmlns:serif="http://www.serif.com/" shape-rendering="geometricPrecision" style="fill-rule:evenodd;clip-rule:evenodd;stroke-linejoin:round;stroke-miterlimit:2;"><g><path d="M420.725,168.055l-164.479,-163.279l-256.246,943.946l164.471,163.288l256.254,-943.955Z" style="fill:#4427f0;fill-rule:nonzero;"/><path d="M1295.48,742.529c-0,-109.641 79.854,-182.35 176.391,-182.35c33.375,0 59.6,5.959 83.438,15.488l-95.35,355.175l178.775,178.775l96.541,-56.004l63.175,-232.421l-134.679,77.466l61.971,-231.216l-121.575,-262.2c-40.521,-15.496 -84.617,-23.846 -132.296,-23.846c-204.991,-0 -370.662,157.333 -370.662,357.558c-0,13.342 0.829,26.542 2.058,39.659l-221.317,126.012l165.671,-616.196l-116.8,-288.429l-108.462,404.05c-40.521,-14.304 -83.434,-22.654 -129.913,-22.654c-205,-0 -370.662,157.333 -370.662,357.558c-0,174.013 104.879,332.525 306.304,373.059l51.246,-181.171c-100.117,-21.45 -163.279,-92.963 -163.279,-188.313c-0,-109.641 79.85,-182.35 176.391,-182.35c33.375,0 59.592,5.959 83.425,15.488l-95.346,355.175l178.784,178.775l296.137,-168.875c50.134,83.641 134.534,147.616 252.071,171.271l51.25,-181.171c-100.112,-21.45 -163.287,-92.963 -163.287,-188.313" style="fill:#4427f0;fill-rule:nonzero;"/><path d="M1846.06,642.415l-47.679,176.392l312.27,0l47.671,-176.392l-312.262,0Z" style="fill:#4427f0;fill-rule:nonzero;"/><path d="M3248.81,295.587c-0,57.208 45.287,102.496 102.504,102.496c56.008,-0 101.296,-45.288 101.296,-102.496c-0,-56.017 -45.288,-101.317 -101.296,-101.317c-57.217,0 -102.504,45.3 -102.504,101.317" style="fill:#4427f0;fill-rule:nonzero;"/><path d="M3643.29,1109.62l73.896,-275.312l255.063,-147.796l77.47,-305.112l-278.908,256.254l27.421,-103.7l-153.75,-152.554l-103.388,384.125l-243.42,139.104l70.32,-259.829l-125.137,-264.592l-147.792,549.446l179.975,179.966l233.188,-134.016l135.062,134.016Z" style="fill:#4427f0;fill-rule:nonzero;"/><path d="M4562.17,829.539l-125.137,71.512l45.283,-169.241l-153.746,-152.559l-95.358,357.55l177.592,176.4l88.191,-51.254l63.175,-232.408Z" style="fill:#4427f0;fill-rule:nonzero;"/><path d="M3976.95,911.774c-0,109.654 91.783,197.846 201.437,197.846l9.529,-0l45.288,-171.621c-10.721,1.191 -16.675,1.191 -20.25,1.191c-27.417,0 -41.713,-17.875 -41.713,-41.72c0,-5.959 1.192,-13.105 2.384,-17.88l92.954,-345.637l-152.558,-152.558l-129.905,476.745c-4.762,16.684 -7.166,34.563 -7.166,53.634" style="fill:#4427f0;fill-rule:nonzero;"/><path d="M71.325,1273.12l-58.37,0l-0,584.105l283.116,-0l0,-56.388l-224.746,0l0,-527.717Z" style="fill:#4427f0;fill-rule:nonzero;"/><path d="M730,1730.96c-15.15,27 -35.6,47.85 -61.367,62.542c-25.771,14.691 -54.063,22.037 -84.879,22.037c-30.813,0 -59.104,-7.346 -84.875,-22.037c-25.771,-14.692 -46.229,-35.542 -61.367,-62.542c-15.15,-27 -22.712,-56.117 -22.712,-87.358c-0,-48.442 16.595,-89.738 49.812,-123.888c33.196,-34.15 72.925,-51.225 119.142,-51.225c45.954,0 85.6,17.075 118.946,51.225c33.345,34.15 50.012,75.446 50.012,123.888c0,31.241 -7.575,60.358 -22.712,87.358m-146.046,-316.867c-66.829,0 -122.121,24.221 -165.871,72.663c-39.788,43.946 -59.671,95.837 -59.671,155.654c0,60.358 21.017,113.108 63.046,158.238c42.033,45.137 96.196,67.7 162.496,67.7c66.025,-0 120.058,-22.563 162.096,-67.7c42.02,-45.13 63.05,-97.88 63.05,-158.238c-0,-60.087 -19.896,-112.104 -59.671,-156.05c-43.759,-48.175 -98.913,-72.267 -165.475,-72.267" style="fill:#4427f0;fill-rule:nonzero;"/><path d="M1262.48,1730.96c-15.15,27 -35.6,47.85 -61.367,62.542c-25.77,14.691 -54.062,22.037 -84.879,22.037c-30.812,0 -59.104,-7.346 -84.875,-22.037c-25.771,-14.692 -46.229,-35.542 -61.366,-62.542c-15.15,-27 -22.713,-56.117 -22.713,-87.358c0,-48.442 16.596,-89.738 49.813,-123.888c33.195,-34.15 72.925,-51.225 119.141,-51.225c45.954,0 85.6,17.075 118.946,51.225c33.346,34.15 50.013,75.446 50.013,123.888c-0,31.241 -7.575,60.358 -22.713,87.358m-146.046,-316.867c-66.829,0 -122.121,24.221 -165.871,72.663c-39.787,43.946 -59.67,95.837 -59.67,155.654c-0,60.358 21.016,113.108 63.045,158.238c42.034,45.137 96.196,67.7 162.496,67.7c66.025,-0 120.059,-22.563 162.096,-67.7c42.021,-45.13 63.05,-97.88 63.05,-158.238c0,-60.087 -19.896,-112.104 -59.671,-156.05c-43.758,-48.175 -98.912,-72.267 -165.475,-72.267" style="fill:#4427f0;fill-rule:nonzero;"/><path d="M2022.53,1436.72c-22.841,-15.088 -49.187,-22.634 -79.029,-22.634c-31.954,0 -61.796,8.805 -89.529,26.405c-27.737,17.612 -50.837,43.354 -69.321,77.233c-8.746,-25.413 -19.079,-44.929 -31.012,-58.571c-11.921,-13.629 -27.3,-24.546 -46.113,-32.758c-18.821,-8.2 -38.691,-12.309 -59.621,-12.309c-31.012,0 -60.562,8.48 -88.658,25.413c-20.408,12.708 -40.283,32.829 -59.629,60.358l-0,-74.654l-55.592,0l0,432.025l55.592,0l-0,-183.054c-0,-54.004 5.358,-94.108 16.083,-120.317c10.721,-26.208 27.259,-47.054 49.634,-62.537c22.366,-15.488 46.387,-23.229 72.07,-23.229c22.234,-0 41.425,5.625 57.575,16.875c16.142,11.258 27.459,26.208 33.95,44.87c6.484,18.663 9.73,54.071 9.73,106.217l-0,221.175l55.591,0l0,-169.158c0,-61.942 5.142,-106.15 15.425,-132.625c10.296,-26.463 26.584,-47.646 48.879,-63.529c22.296,-15.884 46.896,-23.825 73.817,-23.825c22.158,-0 41.217,5.3 57.179,15.883c15.963,10.592 27.25,24.558 33.842,41.892c6.604,17.341 9.9,49.175 9.9,95.495l-0,235.867l56.779,0l0,-235.867c0,-54.004 -5.546,-94.504 -16.637,-121.504c-11.096,-27.004 -28.055,-48.05 -50.905,-63.137" style="fill:#4427f0;fill-rule:nonzero;"/><path d="M2248.91,1597.54c11.396,-39.709 28.221,-69.488 50.488,-89.342c30.475,-27.262 66.929,-40.9 109.337,-40.9c25.7,0 50.221,5.429 73.55,16.279c23.317,10.863 42.067,25.154 56.254,42.884c14.175,17.741 24.975,41.437 32.4,71.079l-322.029,-0Zm335.492,-99.667c-43.988,-55.85 -102.804,-83.783 -176.463,-83.783c-0.921,-0 -1.779,0.121 -2.696,0.129l972.342,-1390.37l-233.6,0l-793.792,1134.64l160.909,-622.154l-159.717,-154.938l-221.679,833.108l209.533,209.534c-40.362,12.321 -74.641,36.112 -102.6,71.846c-33.65,42.887 -50.466,91.729 -50.466,146.525c-0.001,58.241 19.87,110.458 59.62,156.645c39.738,46.2 94.85,69.292 165.334,69.292c31.787,0 60.266,-4.833 85.45,-14.496c25.166,-9.658 47.821,-23.754 67.962,-42.287c20.142,-18.525 37.892,-42.884 53.259,-73.063l-46.859,-24.616c-16.962,28.212 -32.737,48.65 -47.312,61.308c-14.579,12.654 -32.271,22.812 -53.067,30.454c-20.817,7.654 -42.208,11.475 -64.208,11.475c-45.584,0 -83.892,-16.042 -114.896,-48.133c-31.013,-32.084 -47.054,-73.221 -48.104,-123.404l388.737,-0c-0.533,-59.025 -16.429,-108.263 -47.687,-147.713" style="fill:#4427f0;fill-rule:nonzero;"/><path d="M3072.84,1425.21l-81.637,-0l-200.288,174.358l0,-341.133l-55.591,-0l-0,598.795l55.591,0.001l0,-194.509l217.58,194.509l78.241,-0l-251.35,-225.938l237.454,-206.083Z" style="fill:#4427f0;fill-rule:nonzero;"/><rect x="3135.58" y="1258.43" width="55.592" height="598.796" style="fill:#4427f0;"/><path d="M3663.91,1731.85c-14.671,26.18 -35.638,46.934 -62.859,62.263c-27.237,15.346 -56.066,23.008 -86.462,23.008c-30.159,0 -58.392,-7.733 -84.696,-23.208c-26.308,-15.467 -47.254,-37.075 -62.858,-64.842c-15.588,-27.754 -23.388,-56.841 -23.388,-87.258c0,-30.663 7.721,-59.75 23.188,-87.25c15.466,-27.496 36.291,-48.858 62.479,-64.058c26.171,-15.209 54.737,-22.813 85.671,-22.813c48.125,0 88.629,16.8 121.566,50.371c32.917,33.592 49.375,75.367 49.375,125.337c0,32.788 -7.346,62.271 -22.016,88.45m18.445,-227.229c-21.72,-30.179 -46.937,-52.812 -75.645,-67.9c-28.73,-15.087 -60.834,-22.633 -96.292,-22.633c-61.429,-0 -113.963,22.108 -157.638,66.312c-43.679,44.217 -65.52,97.425 -65.52,159.625c-0,63.534 21.641,117.475 64.925,161.809c43.279,44.346 95.495,66.512 156.645,66.512c34.409,0 66.113,-7.146 95.1,-21.441c28.988,-14.296 55.117,-35.6 78.425,-63.93l0,74.255l54.796,-0l0,-432.025l-54.796,-0l0,79.416Z" style="fill:#4427f0;fill-rule:nonzero;"/><path d="M3973.6,1611.44c-33.971,-17.471 -56.246,-32.687 -66.866,-45.662c-10.605,-12.709 -15.905,-26.071 -15.905,-40.109c0,-15.879 6.434,-29.779 19.296,-41.691c12.867,-11.913 28.334,-17.867 46.4,-17.867c28.392,0 57.438,14.433 87.179,43.279l35.738,-36.929c-40.304,-38.912 -80.35,-58.371 -120.117,-58.371c-34.208,0 -62.521,10.863 -84.916,32.563c-22.413,21.708 -33.613,48.979 -33.613,81.8c0,25.154 7.029,47.516 21.088,67.104c14.054,19.596 40.579,39.45 79.591,59.562c36.334,18.534 59.684,33.892 70.025,46.063c10.346,12.446 15.529,26.604 15.529,42.487c0,19.325 -7.845,36.134 -23.487,50.425c-15.667,14.296 -34.629,21.446 -56.925,21.446c-31.825,0 -61.942,-16.012 -90.333,-48.05l-34.942,39.709c14.85,19.062 33.592,34.02 56.262,44.87c22.675,10.85 46.459,16.28 71.396,16.28c37.367,-0 68.517,-12.309 93.454,-36.925c24.917,-24.621 37.384,-54.659 37.384,-90.138c-0,-25.146 -7.304,-47.779 -21.879,-67.9c-14.871,-19.854 -42.984,-40.504 -84.359,-61.946" style="fill:#4427f0;fill-rule:nonzero;"/><path d="M4281.95,1264.79l-55.592,-0l0,160.42l-75.841,0l-0,48.046l75.841,0l0,383.975l55.592,0l-0,-383.975l88.15,0l-0,-48.046l-88.15,0l-0,-160.42Z" style="fill:#4427f0;fill-rule:nonzero;"/><path d="M4495.18,1597.54c11.396,-39.709 28.212,-69.488 50.487,-89.342c30.479,-27.262 66.929,-40.9 109.338,-40.9c25.691,0 50.208,5.429 73.537,16.279c23.329,10.863 42.071,25.154 56.267,42.884c14.175,17.741 24.975,41.437 32.4,71.079l-322.029,-0Zm335.491,-99.667c-43.995,-55.85 -102.804,-83.783 -176.462,-83.783c-71.554,-0 -128.654,27.271 -171.3,81.796c-33.65,42.887 -50.467,91.729 -50.467,146.525c0,58.241 19.875,110.458 59.621,156.645c39.729,46.2 94.842,69.292 165.325,69.292c31.783,0 60.275,-4.833 85.45,-14.496c25.175,-9.658 47.829,-23.754 67.958,-42.287c20.155,-18.525 37.905,-42.884 53.271,-73.063l-46.858,-24.616c-16.975,28.212 -32.738,48.65 -47.308,61.308c-14.596,12.654 -32.284,22.812 -53.071,30.454c-20.825,7.654 -42.209,11.475 -64.209,11.475c-45.583,0 -83.904,-16.042 -114.895,-48.133c-31.013,-32.084 -47.055,-73.221 -48.105,-123.404l388.742,-0c-0.537,-59.025 -16.442,-108.263 -47.692,-147.713" style="fill:#4427f0;fill-rule:nonzero;"/><path d="M5130.11,1414.09c-20.392,0 -39.988,6.154 -58.767,18.463c-18.804,12.312 -36.671,30.912 -53.609,55.791l0.001,-63.137l-56.78,0l0,432.025l56.779,-0l0,-146.125c0,-74.913 3.438,-124.683 10.325,-149.304c8.996,-32.025 22.1,-55.65 39.313,-70.879c17.192,-15.217 35.062,-22.83 53.604,-22.83c7.942,0 17.729,2.521 29.383,7.542l28.988,-46.854c-17.471,-9.788 -33.892,-14.692 -49.238,-14.692" style="fill:#4427f0;fill-rule:nonzero;"/></g></svg>