<svg xmlns="http://www.w3.org/2000/svg" viewBox="0 0 225.73 135.58"><defs><style>.cls-1{fill:#4427f0;}</style></defs><g id="Layer_2" data-name="Layer 2"><g id="Layer_1-2" data-name="Layer 1"><polygon class="cls-1" points="22.02 8.27 13.93 0.23 1.33 46.66 9.42 54.7 22.02 8.27"/><path class="cls-1" d="M32.22,54.7l2.52-8.91c-4.92-1.06-8-4.58-8-9.27a8.59,8.59,0,0,1,8.68-9,10.63,10.63,0,0,1,4.1.77L34.8,45.79l8.8,8.79,14.56-8.31a18.19,18.19,0,0,0,12.4,8.43l2.52-8.91c-4.92-1.06-8-4.58-8-9.27a8.59,8.59,0,0,1,8.68-9,10.63,10.63,0,0,1,4.1.77L73.14,45.79l8.79,8.79,4.75-2.76,3.11-11.43L83.17,44.2l3-11.37-6-12.9a18.09,18.09,0,0,0-6.5-1.17c-10.09,0-18.23,7.74-18.23,17.59,0,.65,0,1.3.1,1.95L44.71,44.5l8.15-30.31L47.11,0,41.78,19.87a19.05,19.05,0,0,0-6.39-1.11c-10.08,0-18.23,7.74-18.23,17.59C17.16,44.91,22.32,52.7,32.22,54.7Z"/><polygon class="cls-1" points="107.49 31.6 92.13 31.6 89.79 40.27 105.15 40.27 107.49 31.6"/><path class="cls-1" d="M115.56,69.22A10,10,0,0,0,109.37,73a11.34,11.34,0,0,0-2.49,7.21A11.5,11.5,0,0,0,109.82,88a10.14,10.14,0,0,0,8.13,3.4,11.56,11.56,0,0,0,4.2-.71,10.34,10.34,0,0,0,3.35-2.08A12.68,12.68,0,0,0,128.12,85l-2.31-1.21a12.62,12.62,0,0,1-2.33,3,8.28,8.28,0,0,1-2.61,1.5,9,9,0,0,1-3.16.56,7.58,7.58,0,0,1-5.65-2.36,8.66,8.66,0,0,1-2.36-6.07h19.12a11.52,11.52,0,0,0-2.35-7.27,10.29,10.29,0,0,0-6.58-3.94l47.57-68H156L116.93,57l7.91-30.6L117,18.76l-10.91,41Zm5.89,3.21a7.54,7.54,0,0,1,2.77,2.11A9.12,9.12,0,0,1,125.81,78H110a9.14,9.14,0,0,1,2.48-4.39,7.81,7.81,0,0,1,5.38-2H118l.12.12.08-.11A8.26,8.26,0,0,1,121.45,72.43Z"/><polygon class="cls-1" points="163.53 44.5 166.99 31.72 160.84 18.7 153.57 45.73 162.42 54.58 173.89 47.99 180.53 54.58 184.17 41.04 196.71 33.77 200.53 18.76 186.81 31.36 188.15 26.26 180.59 18.76 175.51 37.65 163.53 44.5"/><path class="cls-1" d="M161.13,14.54a5,5,0,1,0,5-5A5,5,0,0,0,161.13,14.54Z"/><path class="cls-1" d="M207.32,54.58l2.23-8.44a8,8,0,0,1-1,.06,1.91,1.91,0,0,1-2.05-2.06,4,4,0,0,1,.12-.88l4.57-17-7.5-7.5L197.3,42.21a9.36,9.36,0,0,0-.35,2.64,9.86,9.86,0,0,0,9.9,9.73Z"/><polygon class="cls-1" points="218.28 54.76 222.62 52.23 225.73 40.8 219.57 44.32 221.8 36 214.24 28.49 209.55 46.08 218.28 54.76"/><polygon class="cls-1" points="6.41 90.81 9.34 90.81 9.34 64.89 15.74 64.89 15.74 62.08 0 62.08 0 64.89 6.41 64.89 6.41 90.81"/><path class="cls-1" d="M31,74.9a5.22,5.22,0,0,0-1.53-3.74q-1.55-1.6-5-1.6H18.41V90.81h6.17q7.74,0,7.74-5.87a5.58,5.58,0,0,0-4.14-5.65A4.32,4.32,0,0,0,31,74.9Zm-9.88-3h1.78a18.22,18.22,0,0,1,3.1.16,2.47,2.47,0,0,1,1.44,1,3.5,3.5,0,0,1,.69,2.22,3,3,0,0,1-.66,2,2.78,2.78,0,0,1-1.4,1,15.88,15.88,0,0,1-3.17.19H21.15Zm8.06,13a3.74,3.74,0,0,1-.63,2.23,3,3,0,0,1-1.53,1.14,12,12,0,0,1-3,.26H21.15V81.06h4.07a4.06,4.06,0,0,1,2.9,1A3.62,3.62,0,0,1,29.21,84.87Z"/><path class="cls-1" d="M39,72.58A11.39,11.39,0,0,0,39.19,88a10.43,10.43,0,0,0,8,3.33,10.42,10.42,0,0,0,8-3.33,11.41,11.41,0,0,0,.16-15.46A10.54,10.54,0,0,0,47.18,69,10.53,10.53,0,0,0,39,72.58ZM55.48,80.3a8.69,8.69,0,0,1-1.11,4.3,8,8,0,0,1-3,3.07,8.54,8.54,0,0,1-8.35,0,7.89,7.89,0,0,1-3-3.07,8.6,8.6,0,0,1-1.12-4.3,8.42,8.42,0,0,1,2.45-6.09,8.06,8.06,0,0,1,11.71,0A8.38,8.38,0,0,1,55.48,80.3Z"/><path class="cls-1" d="M81.29,88.08a11,11,0,0,0,3.19-8,10.77,10.77,0,0,0-3.22-7.85A10.5,10.5,0,0,0,73.52,69a10,10,0,0,0-4.71,1.11,11.13,11.13,0,0,0-3.72,3.34v-3.9H62.35v29h2.74V87.15a11.56,11.56,0,0,0,3.84,3.15,10.76,10.76,0,0,0,12.36-2.22ZM69.07,87.7A7.93,7.93,0,0,1,66,84.64a8.77,8.77,0,0,1-1.08-4.35,8.48,8.48,0,0,1,2.43-6.17,8,8,0,0,1,6-2.47,8.23,8.23,0,0,1,7.28,4.27,8.61,8.61,0,0,1,0,8.58,8.39,8.39,0,0,1-3.09,3.19,8,8,0,0,1-4.14,1.14A8.55,8.55,0,0,1,69.07,87.7Z"/><path class="cls-1" d="M99.09,90.81h2.74V69.56H99.09v9.33h-4A5.33,5.33,0,0,1,91.63,78c-.7-.59-1-2.12-1-4.6V69.56H87.9v5.31a6.56,6.56,0,0,0,1.57,4.67,6.32,6.32,0,0,0,4.83,1.68h4.79Z"/><path class="cls-1" d="M150.45,90.09a10.18,10.18,0,0,0,4.09-3.56l-2.17-1.43a9.8,9.8,0,0,1-12.26,2.6,8.25,8.25,0,0,1-3.24-3.18,8.66,8.66,0,0,1-1.18-4.37,8.17,8.17,0,0,1,2.57-6.07,8.89,8.89,0,0,1,6.45-2.49,9.06,9.06,0,0,1,7.66,3.73L154.54,74a9.16,9.16,0,0,0-2.32-2.64,11.3,11.3,0,0,0-3.33-1.68,13,13,0,0,0-4.08-.64,12.45,12.45,0,0,0-6.07,1.48,11,11,0,0,0-4.27,4.13,11.21,11.21,0,0,0-1.55,5.74,10.42,10.42,0,0,0,3.32,7.79,11.53,11.53,0,0,0,8.36,3.2A13.1,13.1,0,0,0,150.45,90.09Z"/><polygon class="cls-1" points="176.18 69.56 172.38 69.56 162.53 78.51 162.53 69.56 159.79 69.56 159.79 90.81 162.53 90.81 162.53 81.74 163.39 80.98 173.16 90.81 177.03 90.81 165.4 79.28 176.18 69.56"/><polygon class="cls-1" points="182.61 85.28 182.61 69.56 179.87 69.56 179.87 90.81 180.21 90.81 195.69 75.23 195.69 90.81 198.43 90.81 198.43 69.56 198.21 69.56 182.61 85.28"/><path class="cls-1" d="M216.4,62.6a6,6,0,0,1-2.52.45,6.34,6.34,0,0,1-2.66-.51A4.1,4.1,0,0,1,209.44,61h-2.57a5,5,0,0,0,2.3,3,8.51,8.51,0,0,0,4.69,1.16A8.26,8.26,0,0,0,218.52,64,4.93,4.93,0,0,0,220.71,61h-2.5A5,5,0,0,1,216.4,62.6Z"/><polygon class="cls-1" points="207.26 85.28 207.26 69.56 204.52 69.56 204.52 90.81 204.85 90.81 220.34 75.23 220.34 90.81 223.08 90.81 223.08 69.56 222.86 69.56 207.26 85.28"/><polygon class="cls-1" points="19.6 99.08 15.74 99.08 4.26 109.86 4.26 99.08 1.33 99.08 1.33 127.81 4.26 127.81 4.26 114.42 16.85 127.81 20.68 127.81 5.8 111.97 19.6 99.08"/><polygon class="cls-1" points="32.24 106.56 22.5 127.81 25.43 127.81 32.48 112.33 39.6 127.81 42.51 127.81 32.73 106.56 32.24 106.56"/><path class="cls-1" d="M65.16,110.46a11,11,0,0,0-3.72-3.34A10.07,10.07,0,0,0,56.7,106,10.52,10.52,0,0,0,49,109.27a10.77,10.77,0,0,0-3.23,7.85,11,11,0,0,0,3.2,8A10.79,10.79,0,0,0,61.3,127.3a11.62,11.62,0,0,0,3.86-3.15v3.66h2.69V106.56H65.16Zm-.91,11.18a7.84,7.84,0,0,1-3.09,3.06,8.48,8.48,0,0,1-4.25,1.13,8.1,8.1,0,0,1-4.17-1.14,8.39,8.39,0,0,1-3.09-3.19,8.61,8.61,0,0,1,0-8.58,8.23,8.23,0,0,1,7.29-4.27,8.06,8.06,0,0,1,6,2.47,8.51,8.51,0,0,1,2.42,6.17A8.77,8.77,0,0,1,64.25,121.64Z"/><path class="cls-1" d="M84.3,108.59A9.06,9.06,0,0,1,92,112.32L94.13,111a9.16,9.16,0,0,0-2.32-2.64,11.3,11.3,0,0,0-3.33-1.68A13,13,0,0,0,84.4,106a12.45,12.45,0,0,0-6.07,1.48,11,11,0,0,0-4.27,4.13,11.21,11.21,0,0,0-1.55,5.74,10.42,10.42,0,0,0,3.32,7.79,11.53,11.53,0,0,0,8.36,3.2A13.1,13.1,0,0,0,90,127.09a10.18,10.18,0,0,0,4.09-3.56L92,122.1a9.8,9.8,0,0,1-12.26,2.6,8.25,8.25,0,0,1-3.24-3.18,8.66,8.66,0,0,1-1.18-4.37,8.17,8.17,0,0,1,2.57-6.07A8.89,8.89,0,0,1,84.3,108.59Z"/><polygon class="cls-1" points="97 108.92 102.63 108.92 102.63 127.81 105.36 127.81 105.36 108.92 110.99 108.92 110.99 106.56 97 106.56 97 108.92"/><path class="cls-1" d="M133.25,110.13a10.48,10.48,0,0,0-8.68-4.12,10.16,10.16,0,0,0-8.43,4,11.39,11.39,0,0,0-2.48,7.21,11.54,11.54,0,0,0,2.93,7.71,10.18,10.18,0,0,0,8.14,3.4,11.56,11.56,0,0,0,4.2-.71,10.3,10.3,0,0,0,3.34-2.08,12.49,12.49,0,0,0,2.62-3.59l-2.3-1.21a12.88,12.88,0,0,1-2.33,3,8.5,8.5,0,0,1-2.61,1.5,9,9,0,0,1-3.16.56,7.58,7.58,0,0,1-5.65-2.36,8.71,8.71,0,0,1-2.37-6.07H135.6A11.52,11.52,0,0,0,133.25,110.13Zm-16.5,4.9a9.14,9.14,0,0,1,2.48-4.39,7.79,7.79,0,0,1,5.38-2,8.42,8.42,0,0,1,3.62.8,7.5,7.5,0,0,1,2.76,2.11,9.12,9.12,0,0,1,1.6,3.49Z"/><path class="cls-1" d="M151.9,106a10,10,0,0,0-4.71,1.11,11.13,11.13,0,0,0-3.72,3.34v-3.9h-2.74v29h2.74V124.15a11.56,11.56,0,0,0,3.84,3.15,10.76,10.76,0,0,0,12.36-2.22,11,11,0,0,0,3.19-8,10.77,10.77,0,0,0-3.22-7.85A10.5,10.5,0,0,0,151.9,106Zm7,15.49a8.39,8.39,0,0,1-3.09,3.19,8,8,0,0,1-4.14,1.14,8.52,8.52,0,0,1-4.26-1.13,7.87,7.87,0,0,1-3.1-3.06,8.77,8.77,0,0,1-1.08-4.35,8.48,8.48,0,0,1,2.43-6.17,8,8,0,0,1,6-2.47,8.23,8.23,0,0,1,7.28,4.27,8.61,8.61,0,0,1,0,8.58Z"/></g></g></svg>